<svg viewBox="0 0 87 22" fill="none" xmlns="http://www.w3.org/2000/svg">
<path d="M3.32088e-09 0.451721V21.548H10.3227V16.4547H5.37255V13.4112H9.71908V8.46833H5.37255V5.54505H10.2322V0.451721H3.32088e-09Z" fill="white"/>
<path d="M11.0159 6.50942V6.72051C11.0159 9.94504 12.4647 11.3914 15.2716 13.6519C16.2981 14.4657 16.9015 14.978 16.9015 15.6411V15.7015C16.9015 16.3645 16.4188 16.7559 15.5131 16.7559C14.215 16.7559 12.6157 16.1534 11.3178 15.3697V20.6137C12.4951 21.367 14.2757 21.8495 16.0865 21.8495C19.407 21.8495 22.3047 19.3479 22.3047 15.5204V15.3093C22.3047 12.1451 20.8558 10.6384 18.0484 8.37797C16.962 7.50404 16.4188 6.99171 16.4188 6.32862V6.26827C16.4188 5.72588 16.8714 5.24384 17.7169 5.24384C18.8635 5.24384 20.2221 5.60544 21.4595 6.29857V0.994393C20.3427 0.482054 18.9844 0.150513 17.1433 0.150513C13.7322 0.150513 11.0159 2.56146 11.0159 6.50942Z" fill="white"/>
<path d="M23.1489 0.451721V21.548H28.4613V15.4903H28.6724C31.6002 15.4903 35.5545 13.6819 35.5545 8.19714V7.7449C35.5545 2.71217 32.5661 0.451721 28.1897 0.451721H23.1489ZM28.4613 5.09306H28.5521C29.5475 5.09306 30.2419 5.78619 30.2419 7.65499V8.28778C30.2419 10.1561 29.5475 10.8492 28.5521 10.8492H28.4613V5.09306Z" fill="white"/>
<path d="M36.1873 0.451721V21.548H41.4994V15.1888H41.5598L43.4312 21.548H49.1662L46.3894 13.4112C47.7474 12.3559 48.8642 10.8189 48.8642 7.7752V7.44366C48.8642 5.15292 48.2004 3.4957 47.053 2.35033C45.7255 1.02441 43.7332 0.451721 41.4693 0.451721H36.1873ZM41.4994 5.09306H41.6503C42.6467 5.09306 43.3407 5.78619 43.3407 7.65499V8.31783C43.3407 10.1861 42.6467 10.8793 41.6503 10.8793H41.4994V5.09306Z" fill="white"/>
<path d="M49.6785 0.451721V21.548H60.0012V16.4547H55.051V13.4112H59.3975V8.46833H55.051V5.54481H59.9104V0.451721H49.6785Z" fill="white"/>
<path d="M60.6941 6.50942V6.72051C60.6941 9.94504 62.1429 11.3914 64.9503 13.6519C65.9763 14.4657 66.5803 14.978 66.5803 15.6411V15.7015C66.5803 16.3645 66.0972 16.7559 65.1916 16.7559C63.8937 16.7559 62.2942 16.1534 60.996 15.3697V20.6137C62.173 21.367 63.9542 21.8495 65.7654 21.8495C69.0855 21.8495 71.9827 19.3479 71.9827 15.5204V15.3093C71.9827 12.1451 70.5341 10.6384 67.7271 8.37797C66.6404 7.50404 66.0972 6.99171 66.0972 6.32862V6.26827C66.0972 5.72588 66.5499 5.24384 67.3951 5.24384C68.542 5.24384 69.9003 5.60544 71.138 6.29857V0.994393C70.0212 0.482054 68.6629 0.150513 66.8218 0.150513C63.411 0.150513 60.6941 2.56146 60.6941 6.50942Z" fill="white"/>
<path d="M72.4956 10.2167V11.7835C72.4956 18.5343 75.0608 22 79.3473 22C83.6332 22 86.1988 18.5343 86.1988 11.7835V10.2167C86.1988 3.46592 83.6332 8.10058e-10 79.3473 8.10058e-10C75.0608 8.10058e-10 72.4956 3.46592 72.4956 10.2167ZM77.9888 11.8742V10.1261C77.9888 5.63548 78.4718 4.94234 79.3473 4.94234C80.2226 4.94234 80.7054 5.63548 80.7054 10.1261V11.8742C80.7054 16.3645 80.2226 17.0574 79.3473 17.0574C78.4718 17.0574 77.9888 16.3645 77.9888 11.8742Z" fill="white"/>
</svg>
