<svg fill="none" height="50" viewBox="0 0 77 50" width="77" xmlns="http://www.w3.org/2000/svg"><g fill="#b37a00"><path d="m32.0204 16.2675h-.9539c-.2385-2.512-.7155-4.5451-1.312-6.1007-.835-2.15263-2.0274-3.94727-3.3394-5.14349-1.4308-1.19557-2.8624-1.794-4.4134-1.794-1.5498 0-2.8618.71735-3.9353 2.15268-1.0734 1.43596-1.67 2.99085-1.5504 4.78481 0 1.7947.477 3.4691 1.312 5.1436.8343 1.6751 2.7428 4.1871 5.7247 7.5359 2.3848 2.7518 4.0548 5.024 4.8905 6.9382.8685 2.0006 1.3149 4.1588 1.3113 6.3398.1196 2.512-.477 4.9044-1.5504 7.0577-1.0735 2.1527-2.624 3.8278-4.7709 5.024-2.147 1.1956-4.5318 1.794-7.1557 1.794-1.67 0-3.6974-.2391-6.32129-.9571-2.50499-.5978-4.17498-.9571-5.00935-.9571-.59651 0-1.19303.1202-1.78955.3593-.47696.2391-1.1924.7173-1.90784 1.4353h-1.073475l2.981315-18.1817h1.07348c.35804 3.2294.95392 5.8609 1.78955 8.1338.83436 2.2728 2.0274 3.9473 3.57783 5.2631 1.55043 1.1962 3.22043 1.9142 5.12823 1.9142 1.9085 0 3.4596-.718 4.7709-2.2729 1.193-1.5549 1.7889-3.3495 1.7889-5.3827 0-1.7946-.4769-3.469-1.1924-5.0239-.7154-1.6751-2.5043-3.948-5.1282-7.0578-2.6246-3.1097-5.12895-6.3404-5.6059-8.2539-.71544-1.794-1.19304-3.7076-1.19304-5.7413-.11892-3.58868.95392-6.5789 3.22044-9.21109 2.2659-2.63154 5.1289-3.827756 8.8263-3.827756 1.6693 0 3.9359.478868 6.6787 1.316406 1.5504.59779 2.7435.83691 3.3394.83691.5965 0 1.0734-.11956 1.4308-.47823.4776-.23912.9546-.83754 1.5511-1.794644h1.67z"/><path d="m44.0671 17.3442h3.2198l-.9539 4.0668h-3.3394l-4.6519 20.5748c-.3574 1.3158-.477 2.2722-.477 2.8707 0 .2391.1196.4782.2385.7173.1195.2398.358.2398.5965.2398.358 0 .7154-.1196.9539-.4789.835-.8369 1.9085-2.2729 2.9826-4.306l1.0729.7174c-1.312 2.8713-2.624 4.9044-4.294 6.2201-1.5504 1.3165-3.1008 1.9142-4.6513 1.9142-1.3119 0-2.3848-.3586-3.1008-1.1962-.7155-.8375-1.0735-1.794-1.1931-3.1097 0-1.3165.2391-3.1105.7161-5.2638l4.4128-19.0192h-3.6974l.477-2.6316c2.2665-1.0766 4.2939-2.3924 5.9633-3.8277 1.67-1.4354 3.6974-3.8278 6.0828-7.17731h1.7889zm15.982-1.794-5.9633 25.5974c-.358 1.4354-.477 2.3925-.477 2.7511 0 .2392.119.4789.2379.718.1195.2391.358.3587.5965.3587.358 0 .5965-.2391.9539-.5978.835-.9571 1.7896-2.512 2.9826-4.9044l.9539.7173c-2.7435 6.4593-5.7254 9.5698-9.0648 9.5698-1.3119 0-2.2658-.4789-2.9819-1.3165-.7155-.8369-1.1924-1.9135-1.1924-3.2293 0-.8369.1189-1.9142.4769-3.3489l3.459-15.1921c.358-1.6745.5965-2.8707.5965-3.7076 0-.4788-.2385-.9571-.5965-1.3164-.3581-.3587-.954-.5978-1.67-.5978h-1.0735l1.67-4.0668s7.1563 0 9.3032-1.7947h1.789v.3593zm7.1563 24.4019c-.477 2.3924-.7161 3.8277-.7161 4.4261 0 .2392.1195.4783.2385.7174.1195.2391.358.2391.5965.2391.358 0 .7154-.1196.9539-.4782.9539-.8376 1.9085-2.3925 2.9826-4.4262l1.1924.5978c-1.7896 3.3501-3.4596 5.8621-5.2478 7.2975-1.1931.9564-2.505 1.4353-3.817 1.4353-1.3119 0-2.2659-.3587-3.1009-1.1962-.7154-.8376-1.193-1.7947-1.193-2.9909 0-.8369.2391-2.2722.5965-4.1864l7.2752-32.41674c.3581-1.79401.5966-2.99022.5966-3.58865 0-.59779-.2385-.95646-.7155-1.31577-.5965-.47823-1.4309-.71735-2.6239-.59779l.2385-1.31641 9.8991-2.15204h1.7889zm-9.6613-36.48365c2.3854 0 4.2939 1.9142 4.2939 4.30599 0 2.39246-1.9079 4.30666-4.2939 4.30666-2.5044 0-4.2933-2.0338-4.2933-4.30666 0-2.39243 1.9078-4.30599 4.2933-4.30599z"/></g></svg>